<?xml version="1.0" encoding="UTF-8" standalone="no" ?>
<!DOCTYPE svg PUBLIC "-//W3C//DTD SVG 1.1//EN" "http://www.w3.org/Graphics/SVG/1.1/DTD/svg11.dtd">
<svg xmlns="http://www.w3.org/2000/svg" xmlns:xlink="http://www.w3.org/1999/xlink" version="1.1" width="25" height="25" viewBox="0 0 25 25" xml:space="preserve">
<g transform="matrix(0.12 0 0 0.12 13.05 12.06)"  >
<path style="stroke: none; stroke-width: 1; stroke-dasharray: none; stroke-linecap: butt; stroke-dashoffset: 0; stroke-linejoin: miter; stroke-miterlimit: 4; fill: rgb(255,255,255); fill-rule: nonzero; opacity: 1;" vector-effect="non-scaling-stroke"  transform=" translate(-176.49, -235)" d="M 199.36808 153.64157 c 0 6.31877 -2.234 11.71224 -6.70201 16.18041 c -4.46817 4.468 -9.86165 6.70201 -16.18041 6.70201 c -6.31877 0 -11.71224 -2.234 -16.18041 -6.70201 c -4.468 -4.46817 -6.70201 -9.86165 -6.70201 -16.18041 c 0 -6.31877 2.234 -11.71224 6.70201 -16.18041 c 4.46817 -4.468 9.86165 -6.70201 16.18041 -6.70201 c 6.31877 0 11.71224 2.234 16.18041 6.70201 c 4.468 4.46817 6.70201 9.86165 6.70201 16.18041 z M 240.04793 153.64157 c 0 4.56428 -1.61372 8.46013 -4.84116 11.68757 c -3.22744 3.22744 -7.12329 4.84116 -11.68757 4.84116 c -4.56428 0 -8.46013 -1.61372 -11.68757 -4.84116 c -3.22744 -3.22744 -4.84116 -7.12329 -4.84116 -11.68757 c 0 -4.56428 1.61372 -8.46013 4.84116 -11.68757 c 3.22744 -3.22744 7.12329 -4.84116 11.68757 -4.84116 c 4.56428 0 8.46013 1.61372 11.68757 4.84116 c 3.22744 3.22744 4.84116 7.12329 4.84116 11.68757 z M 145.97578 153.64157 c 0 4.56361 -1.61346 8.45886 -4.84039 11.68579 c -3.22693 3.22693 -7.1222 4.84039 -11.68579 4.84039 c -4.56361 0 -8.45886 -1.61346 -11.68579 -4.84039 c -3.22693 -3.22693 -4.84039 -7.1222 -4.84039 -11.68579 c 0 -4.56361 1.61346 -8.45886 4.84039 -11.68579 c 3.22693 -3.22693 7.1222 -4.84039 11.68579 -4.84039 c 4.56361 0 8.45886 1.61346 11.68579 4.84039 c 3.22693 3.22693 4.84039 7.1222 4.84039 11.68579 z M 105.29847 153.64157 c 0 6.78167 -3.39084 10.17251 -10.17251 10.17251 c -6.78167 0 -10.17251 -3.39084 -10.17251 -10.17251 c 0 -6.78167 3.39084 -10.17251 10.17251 -10.17251 c 6.78167 0 10.17251 3.39084 10.17251 10.17251 z M 257.84536 163.81154 c -6.77998 0 -10.16996 -3.38998 -10.16996 -10.16996 c 0 -6.77998 3.38998 -10.16996 10.16996 -10.16996 c 6.77998 0 10.16996 3.38998 10.16996 10.16996 c 0 6.77998 -3.38998 10.16996 -10.16996 10.16996 z M 269.53294 199.65277 c -3.22744 3.22744 -7.12329 4.84116 -11.68757 4.84116 c -4.56428 0 -8.46013 -1.61372 -11.68757 -4.84116 c -3.22744 -3.22744 -4.84116 -7.12329 -4.84116 -11.68757 c 0 -4.56428 1.61372 -8.46013 4.84116 -11.68757 c 3.22744 -3.22744 7.12329 -4.84116 11.68757 -4.84116 c 4.56428 0 8.46013 1.61372 11.68757 4.84116 c 3.22744 3.22744 4.84116 7.12329 4.84116 11.68757 c 0 4.56428 -1.61372 8.46013 -4.84116 11.68757 z M 111.65216 187.9652 c 0 4.56361 -1.61346 8.45886 -4.84039 11.68579 c -3.22693 3.22693 -7.1222 4.84039 -11.68579 4.84039 c -4.56361 0 -8.45886 -1.61346 -11.68579 -4.84039 c -3.22693 -3.22693 -4.84039 -7.1222 -4.84039 -11.68579 c 0 -4.56361 1.61346 -8.45886 4.84039 -11.68579 c 3.22693 -3.22693 7.1222 -4.84039 11.68579 -4.84039 c 4.56361 0 8.45886 1.61346 11.68579 4.84039 c 3.22693 3.22693 4.84039 7.1222 4.84039 11.68579 z M 227.33548 194.31888 c 0 6.78167 -3.39084 10.17251 -10.17251 10.17251 c -6.78167 0 -10.17251 -3.39084 -10.17251 -10.17251 c 0 -6.78167 3.39084 -10.17251 10.17251 -10.17251 c 6.78167 0 10.17251 3.39084 10.17251 10.17251 z M 145.97324 194.31888 c 0 6.77998 -3.38998 10.16996 -10.16996 10.16996 c -6.77998 0 -10.16996 -3.38998 -10.16996 -10.16996 c 0 -6.77998 3.38998 -10.16996 10.16996 -10.16996 c 6.77998 0 10.16996 3.38998 10.16996 10.16996 z M 193.01185 200.67765 c 0 4.56361 -1.61346 8.45886 -4.84039 11.68579 c -3.22693 3.22693 -7.1222 4.84039 -11.68579 4.84039 c -4.56361 0 -8.45886 -1.61346 -11.68579 -4.84039 c -3.22693 -3.22693 -4.84039 -7.1222 -4.84039 -11.68579 c 0 -4.56361 1.61346 -8.45886 4.84039 -11.68579 c 3.22693 -3.22693 7.1222 -4.84039 11.68579 -4.84039 c 4.56361 0 8.45886 1.61346 11.68579 4.84039 c 3.22693 3.22693 4.84039 7.1222 4.84039 11.68579 z M 118.00838 235.00127 c 0 6.31877 -2.234 11.71224 -6.70201 16.18041 c -4.46817 4.468 -9.86165 6.70201 -16.18041 6.70201 c -6.31877 0 -11.71224 -2.234 -16.18041 -6.70201 c -4.468 -4.46817 -6.70201 -9.86165 -6.70201 -16.18041 c 0 -6.31877 2.234 -11.71224 6.70201 -16.18041 c 4.46817 -4.468 9.86165 -6.70201 16.18041 -6.70201 c 6.31877 0 11.71224 2.234 16.18041 6.70201 c 4.468 4.46817 6.70201 9.86165 6.70201 16.18041 z M 280.72778 235.00127 c 0 6.31877 -2.234 11.71224 -6.70201 16.18041 c -4.46817 4.468 -9.86165 6.70201 -16.18041 6.70201 c -6.31877 0 -11.71224 -2.234 -16.18041 -6.70201 c -4.468 -4.46817 -6.70201 -9.86165 -6.70201 -16.18041 c 0 -6.31877 2.234 -11.71224 6.70201 -16.18041 c 4.46817 -4.468 9.86165 -6.70201 16.18041 -6.70201 c 6.31877 0 11.71224 2.234 16.18041 6.70201 c 4.468 4.46817 6.70201 9.86165 6.70201 16.18041 z M 158.68569 235.00127 c 0 4.56361 -1.61346 8.45886 -4.84039 11.68579 c -3.22693 3.22693 -7.1222 4.84039 -11.68579 4.84039 c -4.56361 0 -8.45886 -1.61346 -11.68579 -4.84039 c -3.22693 -3.22693 -4.84039 -7.1222 -4.84039 -11.68579 c 0 -4.56361 1.61346 -8.45886 4.84039 -11.68579 c 3.22693 -3.22693 7.1222 -4.84039 11.68579 -4.84039 c 4.56361 0 8.45886 1.61346 11.68579 4.84039 c 3.22693 3.22693 4.84039 7.1222 4.84039 11.68579 z M 227.33548 235.00127 c 0 4.56361 -1.61346 8.45886 -4.84039 11.68579 c -3.22693 3.22693 -7.1222 4.84039 -11.68579 4.84039 c -4.56361 0 -8.45886 -1.61346 -11.68579 -4.84039 c -3.22693 -3.22693 -4.84039 -7.1222 -4.84039 -11.68579 c 0 -4.56361 1.61346 -8.45886 4.84039 -11.68579 c 3.22693 -3.22693 7.1222 -4.84039 11.68579 -4.84039 c 4.56361 0 8.45886 1.61346 11.68579 4.84039 c 3.22693 3.22693 4.84039 7.1222 4.84039 11.68579 z M 186.65563 234.99618 c 0 6.77998 -3.38998 10.16996 -10.16996 10.16996 c -6.77998 0 -10.16996 -3.38998 -10.16996 -10.16996 c 0 -6.77998 3.38998 -10.16996 10.16996 -10.16996 c 6.77998 0 10.16996 3.38998 10.16996 10.16996 z M 188.17069 281.0084 c -3.22761 3.22676 -7.12261 4.84014 -11.68503 4.84014 c -4.56156 0 -8.45691 -1.61321 -11.68605 -4.83963 c -3.23015 -3.22726 -4.84523 -7.12109 -4.84523 -11.68148 c 0 -4.5658 1.61499 -8.46285 4.84497 -11.69114 c 3.22828 -3.22676 7.12372 -4.84014 11.6863 -4.84014 c 4.56343 0 8.45853 1.61355 11.68529 4.84065 c 3.22726 3.22777 4.8409 7.12466 4.8409 11.69063 c 0 4.56072 -1.61372 8.45438 -4.84116 11.68096 z M 227.33548 275.67858 c 0 6.78167 -3.39084 10.17251 -10.17251 10.17251 c -6.78167 0 -10.17251 -3.39084 -10.17251 -10.17251 c 0 -6.78167 3.39084 -10.17251 10.17251 -10.17251 c 6.78167 0 10.17251 3.39084 10.17251 10.17251 z M 145.97324 275.67858 c 0 6.77998 -3.38998 10.16996 -10.16996 10.16996 c -6.77998 0 -10.16996 -3.38998 -10.16996 -10.16996 c 0 -6.77998 3.38998 -10.16996 10.16996 -10.16996 c 6.77998 0 10.16996 3.38998 10.16996 10.16996 z M 274.3741 282.03735 c 0 4.56428 -1.61372 8.46013 -4.84116 11.68757 c -3.22744 3.22744 -7.12329 4.84116 -11.68757 4.84116 c -4.56428 0 -8.46013 -1.61372 -11.68757 -4.84116 c -3.22744 -3.22744 -4.84116 -7.12329 -4.84116 -11.68757 c 0 -4.56428 1.61372 -8.46013 4.84116 -11.68757 c 3.22744 -3.22744 7.12329 -4.84116 11.68757 -4.84116 c 4.56428 0 8.46013 1.61372 11.68757 4.84116 c 3.22744 3.22744 4.84116 7.12329 4.84116 11.68757 z M 111.65216 282.03735 c 0 4.56361 -1.61346 8.45886 -4.84039 11.68579 c -3.22693 3.22693 -7.1222 4.84039 -11.68579 4.84039 c -4.56361 0 -8.45886 -1.61346 -11.68579 -4.84039 c -3.22693 -3.22693 -4.84039 -7.1222 -4.84039 -11.68579 c 0 -4.56361 1.61346 -8.45886 4.84039 -11.68579 c 3.22693 -3.22693 7.1222 -4.84039 11.68579 -4.84039 c 4.56361 0 8.45886 1.61346 11.68579 4.84039 c 3.22693 3.22693 4.84039 7.1222 4.84039 11.68579 z M 199.36808 316.35843 c 0 6.31877 -2.234 11.71224 -6.70201 16.18041 c -4.46817 4.468 -9.86165 6.70201 -16.18041 6.70201 c -6.31877 0 -11.71224 -2.234 -16.18041 -6.70201 c -4.468 -4.46817 -6.70201 -9.86165 -6.70201 -16.18041 c 0 -6.31877 2.234 -11.71224 6.70201 -16.18041 c 4.46817 -4.468 9.86165 -6.70201 16.18041 -6.70201 c 6.31877 0 11.71224 2.234 16.18041 6.70201 c 4.468 4.46817 6.70201 9.86165 6.70201 16.18041 z M 240.04793 316.35843 c 0 4.56428 -1.61372 8.46013 -4.84116 11.68757 c -3.22744 3.22744 -7.12329 4.84116 -11.68757 4.84116 c -4.56428 0 -8.46013 -1.61372 -11.68757 -4.84116 c -3.22744 -3.22744 -4.84116 -7.12329 -4.84116 -11.68757 c 0 -4.56428 1.61372 -8.46013 4.84116 -11.68757 c 3.22744 -3.22744 7.12329 -4.84116 11.68757 -4.84116 c 4.56428 0 8.46013 1.61372 11.68757 4.84116 c 3.22744 3.22744 4.84116 7.12329 4.84116 11.68757 z M 145.97578 316.35843 c 0 4.56361 -1.61346 8.45886 -4.84039 11.68579 c -3.22693 3.22693 -7.1222 4.84039 -11.68579 4.84039 c -4.56361 0 -8.45886 -1.61346 -11.68579 -4.84039 c -3.22693 -3.22693 -4.84039 -7.1222 -4.84039 -11.68579 c 0 -4.56361 1.61346 -8.45886 4.84039 -11.68579 c 3.22693 -3.22693 7.1222 -4.84039 11.68579 -4.84039 c 4.56361 0 8.45886 1.61346 11.68579 4.84039 c 3.22693 3.22693 4.84039 7.1222 4.84039 11.68579 z M 105.29847 316.35843 c 0 6.78167 -3.39084 10.17251 -10.17251 10.17251 c -6.78167 0 -10.17251 -3.39084 -10.17251 -10.17251 c 0 -6.78167 3.39084 -10.17251 10.17251 -10.17251 c 6.78167 0 10.17251 3.39084 10.17251 10.17251 z M 268.01533 316.35843 c 0 6.77998 -3.38998 10.16996 -10.16996 10.16996 c -6.77998 0 -10.16996 -3.38998 -10.16996 -10.16996 c 0 -6.77998 3.38998 -10.16996 10.16996 -10.16996 c 6.77998 0 10.16996 3.38998 10.16996 10.16996 z" stroke-linecap="round" />
</g>
</svg>